<svg viewBox="0 0 450 125" xmlns="http://www.w3.org/2000/svg">
<g transform="translate(0.5,0.5)">
<rect fill="#00000000" height="115" rx="6" stroke="#30363D" stroke-width="1" width="440"/>
<g transform="translate(20,20)">
<path aria-hidden="true" d="M2,2.5 A2.5,2.5,0,0,1,4.5,0 h8.75 a0.75,0.75,0,0,1,0.75,0.75 v12.5 a0.75,0.75,0,0,1,-0.75,0.75 h-2.5 a0.75,0.75,0,1,1,0,-1.5 h1.75 v-2 h-8 a1,1,0,0,0,-0.714,1.7,0.75,0.75,0,0,1,-1.072,1.05 A2.495,2.495,0,0,1,2,11.5 v-9 z m10.5,-1 V9 h-8 c-0.356,0,-0.694,0.074,-1,0.208 V2.5 a1,1,0,0,1,1,-1 h8 z M5,12.25 v3.25 a0.25,0.25,0,0,0,0.4,0.2 l1.45,-1.087 a0.25,0.25,0,0,1,0.3,0 L8.6,15.7 a0.25,0.25,0,0,0,0.4,-0.2 v-3.25 a0.25,0.25,0,0,0,-0.25,-0.25 h-3.5 a0.25,0.25,0,0,0,-0.25,0.25 z M100.5,100.5" fill="#8B949E" fill-rule="evenodd" stroke="#8B949E" stroke-width="0.1"/>
</g>
</g>
</svg>
